<?xml version="1.0" encoding="UTF-8"?>
<svg fill="#2ECC71" width="100pt" height="100pt" version="1.1" viewBox="0 0 100 100" xmlns="http://www.w3.org/2000/svg">
 <path d="m92.676 50.715c0.89453 2.1484-0.125 4.6133-2.2734 5.5078-0.53125 0.21875-1.0781 0.32422-1.6211 0.32422-1.457 0-2.8125-0.79297-3.5859-2.0859l-15.102 13.051c-2.4062-6.8242-8.9023-11.727-16.535-11.727-8.3672 0-15.371 5.8828-17.121 13.723-4.0547-2.8789-7.3086-6.8398-9.2734-11.555-1.8828-4.5195-2.4336-9.3945-1.7617-14.117-4.082-1.8242-6.6953-5.0586-8.2461-8.4961l-1.4688 1.7773c-0.41016 0.49609-1.2148 0.26953-1.3047-0.36328l-0.76562-5.4609c-0.054688-0.36328-0.34375-0.64844-0.70703-0.70312l-5.1953-0.8125c-0.33203-0.050782-0.60156-0.29297-0.6875-0.61328-0.082032-0.32422 0.027344-0.66797 0.28906-0.87891l4.1055-3.2852c0.28516-0.23438 0.38672-0.62109 0.25781-0.96484l-1.8945-4.9023c-0.12109-0.3125-0.046875-0.66797 0.19141-0.90234 0.23438-0.23438 0.58984-0.3125 0.90234-0.19141l4.9023 1.9102c0.33984 0.13281 0.73047 0.027343 0.96094-0.25781l3.3008-4.0898c0.21094-0.26172 0.55469-0.37109 0.875-0.28516 0.32812 0.082032 0.56641 0.35156 0.61719 0.68359l0.79688 5.1992c0.054688 0.36328 0.34375 0.64844 0.70703 0.70312l5.1992 0.8125c0.32812 0.050781 0.59766 0.29297 0.67969 0.61328 0.089843 0.32812-0.023438 0.66797-0.28516 0.87891l-4.1016 3.2891c-0.28516 0.23047-0.39062 0.62109-0.25781 0.96094l1.8945 4.9062c0.12109 0.3125 0.046875 0.66797-0.19141 0.90234-0.23828 0.23438-0.58984 0.3125-0.90234 0.1875l-2.6289-1.0234c0.89063 1.8359 2.2852 3.6055 4.3906 4.8086 0.53906-1.4414 1.1602-2.8594 1.9492-4.207 4.2656-7.2812 11.703-12.137 20.086-13.117l21.266-2.4805c-0.61719-2.043 0.38281-4.2656 2.3984-5.1055 2.1445-0.90234 4.6172 0.11719 5.5117 2.2695zm-38.789 9.375c7.4258 0 13.465 6.0352 13.465 13.453 0 7.4219-6.0391 13.457-13.465 13.457-7.4219 0-13.461-6.0352-13.461-13.457 0-7.418 6.0391-13.453 13.461-13.453zm-6.707 8.5664c-0.76172 1.0469-1.2812 2.2695-1.4883 3.6016h5.0938zm-1.4883 6.168c0.20703 1.3359 0.72656 2.5586 1.4883 3.6055l3.6094-3.6055zm6.9102 6.9102v-5.0898l-3.6016 3.6016c1.043 0.76172 2.2695 1.2812 3.6016 1.4883zm0-11.289v-5.0938c-1.3359 0.20703-2.5586 0.72266-3.6055 1.4883zm2.5664-5.0938v5.0938l3.6094-3.6055c-1.0469-0.76172-2.2734-1.2812-3.6094-1.4883zm0 16.383c1.3398-0.20703 2.5625-0.72656 3.6094-1.4883l-3.6094-3.6055zm5.4258-3.3047c0.76172-1.0469 1.2812-2.2695 1.4883-3.6055h-5.0938zm-3.6055-6.1719h5.0938c-0.20703-1.3359-0.72266-2.5586-1.4883-3.6055z" fill-rule="evenodd"/>
</svg>
