<?xml version="1.0" encoding="UTF-8"?>
<svg fill="#2ECC71" width="100pt" height="100pt" version="1.1" viewBox="0 0 100 100" xmlns="http://www.w3.org/2000/svg">
 <g>
  <path d="m16 88.699h68.199c0.60156 0 1-0.39844 1-1 0-0.60156-0.39844-1-1-1h-30.098v-30.598h21.301c0.60156 0 1-0.39844 1-1l-0.003906-36.602c0-0.60156-0.39844-1-1-1h-21.297v-3.8984c0-2.1016-1.6992-3.8008-3.8008-3.8008h-0.5c-2.1016 0-3.8008 1.6992-3.8008 3.8008v3.8984h-21.301c-0.60156 0-1 0.39844-1 1v36.602c0 0.60156 0.39844 1 1 1h21.301v30.602l-30-0.003906c-0.60156 0-1 0.39844-1 1 0 0.60156 0.39844 1 1 1zm32.102-75.098c0-1 0.80078-1.8008 1.8008-1.8008h0.5c1 0 1.8008 0.80078 1.8008 1.8008v3.8984h-4l-0.003906-3.8984zm-22.402 5.8984h48.699v34.602h-48.699zm22.402 36.602h4v30.602h-4z"/>
  <path d="m55.5 26.301c-0.69922 0-8.6992 0.60156-13.699 7.3008-1.1992-2.8984-3.8008-7.8008-8.6016-7.3008-0.5 0.10156-0.89844 0.5-0.89844 1 0 0.30078-0.10156 5.6992 2.5 8.6016-2.5 2.8984-2.5 8.3008-2.5 8.6016 0 0.5 0.39844 0.89844 0.89844 1h0.69922c4.3008 0 6.8008-4.6016 7.8984-7.3984 5.1016 6.8984 13.398 7.3008 13.801 7.3008h0.10156c10.199 0 12.801-9.1992 12.801-9.3008v-0.60156c-3.3984-10.004-12.199-9.3047-13-9.2031zm-21.102 17.098c0.10156-2 0.69922-5.3984 2.5-6.8008 0.30078-0.19922 0.39844-0.5 0.39844-0.80078s-0.19922-0.60156-0.39844-0.80078c-1.8008-1.3008-2.3984-4.6992-2.5-6.8008 3.6992 0.5 5.6992 6.3008 6.1016 7.6016-0.39844 1.4023-2.3984 7.1016-6.1016 7.6016zm21.203 0c-0.10156 0-8.5-0.39844-13-7.6016 4.3984-7.1992 12.801-7.6016 12.898-7.6016h0.10156c0.30078 0 7.6992-1 10.699 7.6016-0.40234 1.4023-2.9023 7.6016-10.699 7.6016z"/>
  <path d="m62 35.801c0 2-3 2-3 0s3-2 3 0"/>
 </g>
</svg>
