<?xml version="1.0" encoding="UTF-8"?>
<svg fill="#2ECC71" width="100pt" height="100pt" version="1.1" viewBox="0 0 100 100" xmlns="http://www.w3.org/2000/svg">
 <g fill-rule="evenodd">
  <path d="m66.492 43.844c-4.2773 2.9883-6.9453 7.9062-6.9453 13.348 0 7.2383 4.7422 13.383 11.281 15.504 4.7305-3.4258 8.6602-7.8867 11.434-13.066-3.582-6.6914-9.0859-12.191-15.77-15.785zm6.8711 15.449c-1.2617 0-2.2852-1.0273-2.2852-2.2852 0-1.2617 1.0273-2.2891 2.2852-2.2891 1.2617 0 2.2891 1.0273 2.2891 2.2891-0.003906 1.2578-1.0312 2.2852-2.2891 2.2852z"/>
  <path d="m56.547 57.191c0-5.8711 2.6172-11.23 6.9141-14.812-4.6602-2-9.7891-3.1172-15.18-3.1172-10.805 0-20.559 4.4609-27.555 11.625-4.8594-3.9102-11.031-6.2539-17.758-6.2539-0.41016 0-0.82031 0.011719-1.2266 0.027344 3.5391 3.9805 5.6914 9.2227 5.6914 14.965 0.003906 5.75-2.1484 10.992-5.6875 14.973 0.40625 0.019532 0.81641 0.027344 1.2266 0.027344 6.7227 0 12.895-2.3438 17.758-6.2539 6.9922 7.1641 16.75 11.625 27.555 11.625 7.1094 0 13.762-1.9414 19.48-5.3008-6.6133-3.0664-11.219-9.75-11.219-17.504z"/>
  <path d="m87.277 51.941c-1.7773 0-3.2266 1.4492-3.2266 3.2266 0 1.7773 1.4492 3.2266 3.2266 3.2266 1.7734 0 3.2266-1.4492 3.2266-3.2266-0.003906-1.7773-1.4531-3.2266-3.2266-3.2266zm1.25 1.9453c-0.12891 0.43359-0.52734 0.71094-0.95703 0.71094-0.097656 0-0.19141-0.015625-0.28906-0.042968-0.51953-0.15625-0.85938-0.71094-0.71484-1.2344 0.14453-0.52344 0.64844-0.84375 1.1719-0.71094 0.015625 0.003906 0.10547 0.027344 0.12109 0.035156 0.52734 0.15234 0.82812 0.71094 0.66797 1.2422z"/>
  <path d="m79.699 34.844c-2.9336 0-5.3242 2.3906-5.3242 5.3242 0 2.9336 2.3906 5.3242 5.3242 5.3242 2.9336 0 5.3242-2.3945 5.3242-5.3242 0.003906-2.9336-2.3906-5.3242-5.3242-5.3242zm2.4492 3.3711c-0.23828 0.58203-0.78516 0.94141-1.3711 0.94141-0.17969 0-0.35547-0.03125-0.53516-0.10156-0.015626-0.003907-0.085938-0.035157-0.097657-0.039063-0.76172-0.32422-1.1211-1.2109-0.79688-1.9727 0.32422-0.76172 1.1992-1.1211 1.9609-0.79297l0.015625 0.007812c0.75391 0.32031 1.1367 1.1992 0.82422 1.957zm1.1055 1.5938c-0.078125 0.19141-0.26172 0.3125-0.45312 0.3125-0.058593 0-0.11719-0.011719-0.17578-0.03125-0.003906-0.003906-0.027344-0.011719-0.03125-0.015625-0.25-0.10547-0.36719-0.39844-0.26172-0.64844s0.39453-0.36719 0.64453-0.26172l0.003907 0.003907c0.25 0.10156 0.375 0.39062 0.27344 0.64062z"/>
  <path d="m91.504 20.004c-3.7188 0-6.75 3.0312-6.75 6.75s3.0312 6.75 6.75 6.75 6.75-3.0312 6.75-6.75-3.0312-6.75-6.75-6.75zm1.6406 4.3359c-0.19531 0-0.39453-0.039063-0.58594-0.12109-0.77734-0.28125-1.2227-1.1602-0.9375-1.9375 0.28125-0.77734 1.1055-1.1953 1.8789-0.91406 0.078125 0.027343 0.15625 0.058593 0.23438 0.09375 0.76172 0.32422 1.1172 1.2031 0.78906 1.9688-0.24219 0.56641-0.79688 0.91016-1.3789 0.91016zm2.7383 1.3711c-0.12891 0.29687-0.41406 0.47656-0.71875 0.47656-0.10156 0-0.20703-0.019531-0.30859-0.0625-0.40234-0.14844-0.63672-0.60547-0.48828-1.0117 0.14453-0.40625 0.57422-0.62109 0.98047-0.47656 0.039063 0.015625 0.082032 0.03125 0.12109 0.050781 0.39844 0.16797 0.58203 0.625 0.41406 1.0234z"/>
 </g>
</svg>
