<?xml version="1.0" encoding="UTF-8"?>
<svg fill="#2ECC71" width="100pt" height="100pt" version="1.1" viewBox="0 0 100 100" xmlns="http://www.w3.org/2000/svg">
 <g>
  <path d="m61.383 42.371v-2.3594h-22.41v2.3594c0 1.0781 0.87891 1.957 1.957 1.957h18.496c1.0781 0 1.957-0.87891 1.957-1.957z"/>
  <path d="m25.555 78.023h6.9961v-7.9766c0-3.6719 3.0156-10.449 7.3125-10.449h20.375c4.2969 0 7.3164 6.7773 7.3164 10.449v7.9766h7.2812c1.8789 0 3.3984-1.5195 3.3984-3.3984v-36.984c-1.3789 1.457-3.3203 2.3711-5.4805 2.3711h-9.2812v2.3594c0 2.2305-1.8164 4.0469-4.0469 4.0469h-5.0664v1.8945c0 1.7305-1.4062 3.1367-3.1367 3.1367h-2.0898c-1.7305 0-3.1367-1.4062-3.1367-3.1367v-1.8945h-5.0664c-2.2305 0-4.0469-1.8164-4.0469-4.0469v-2.3594h-9.2812c-2.1406 0-4.0703-0.89844-5.4453-2.332v36.945c0 1.8789 1.5195 3.3984 3.3984 3.3984zm1.2656-32.262c0-0.57812 0.46875-1.0469 1.0469-1.0469 0.57812 0 1.0469 0.46875 1.0469 1.0469v14.602c0 0.57812-0.46875 1.0469-1.0469 1.0469-0.57813 0-1.0469-0.46875-1.0469-1.0469zm0 18.328c0-0.57812 0.46875-1.0469 1.0469-1.0469 0.57812 0 1.0469 0.46875 1.0469 1.0469v2.4844c0 0.57812-0.46875 1.0469-1.0469 1.0469-0.57813 0-1.0469-0.46875-1.0469-1.0469z"/>
  <path d="m49.133 49.355h2.0898c0.57422 0 1.0469-0.46875 1.0469-1.0469v-1.8945h-4.1797v1.8945c0 0.57812 0.46875 1.0469 1.043 1.0469z"/>
  <path d="m60.238 61.688h-20.375c-1.8906 0-3.7461 2.707-4.6523 5.375h29.68c-0.90625-2.668-2.7578-5.375-4.6523-5.375z"/>
  <path d="m34.641 70.047v8.3594c0 2.8828 2.3438 5.2266 5.2266 5.2266l20.371-0.003906c2.8828 0 5.2266-2.3438 5.2266-5.2266v-8.3594c0-0.28125-0.027344-0.58203-0.070313-0.89453h-8.0273v2.6719c0 1.7305-1.4062 3.1367-3.1367 3.1367h-8.3594c-1.7305 0-3.1367-1.4062-3.1367-3.1367v-2.6719h-8.0273c-0.039062 0.3125-0.066406 0.61719-0.066406 0.89844z"/>
  <path d="m45.871 72.867h8.3594c0.57812 0 1.0469-0.46875 1.0469-1.0469v-2.6719h-10.449v2.6719c0 0.57813 0.46875 1.0469 1.043 1.0469z"/>
  <path d="m26.309 80.25h-4.8359c-2.8828 0-5.2266 2.3438-5.2266 5.2266v4.1797c0 2.8789 2.3438 5.2266 5.2266 5.2266h4.832c-0.003907-0.042968-0.023438-0.078124-0.023438-0.12109v-14.371c-0.003906-0.050781 0.019531-0.089844 0.027344-0.14062z"/>
  <path d="m71.762 80.25h-4.4531c-0.82031 3.1406-3.6758 5.4688-7.0703 5.4688h-20.375c-3.3945 0-6.25-2.3281-7.0703-5.4688h-4.4531c0.007812 0.046875 0.027344 0.089844 0.027344 0.14062v14.367c0 0.042969-0.019532 0.082032-0.023438 0.12109h43.414c-0.003906-0.042968-0.023437-0.078125-0.023437-0.12109v-14.367c0-0.050781 0.023437-0.089844 0.027344-0.14062z"/>
  <path d="m78.422 80.25h-4.625c0.007813 0.046875 0.027344 0.089844 0.027344 0.14062v14.367c0 0.042969-0.019531 0.082032-0.023438 0.12109h4.6211c2.8828 0 5.2266-2.3438 5.2266-5.2266v-4.1797c0-2.875-2.3438-5.2227-5.2266-5.2227z"/>
  <path d="m50.051 22.93c-0.57812 0-1.0469 0.46875-1.0469 1.0469v5.2812c0 0.57813 0.46875 1.0469 1.0469 1.0469s1.0469-0.46875 1.0469-1.0469v-5.2812c0-0.57812-0.46875-1.0469-1.0469-1.0469z"/>
  <path d="m19.871 46.879v-16.543l-5.8516 2.8125s-4.1797 1.5078-4.1797 5.7969v3.8711c0.050781 0.011719 0.097656 0.007813 0.14453 0.027344z"/>
  <path d="m19.871 49.137l-10.031-4.0898v26.453c0 2.3086 1.8711 4.1797 4.1797 4.1797h5.8516z"/>
  <path d="m85.98 33.152l-5.5898-2.8125v16.602l9.7695-4.0195v-3.9688c0-4.2969-4.1797-5.8008-4.1797-5.8008z"/>
  <path d="m80.391 49.184v26.496h5.5898c2.3086 0 4.1797-1.8711 4.1797-4.1797v-26.324l-9.707 3.9961c-0.023437 0.007813-0.042969 0.007813-0.0625 0.011719z"/>
  <path d="m27.602 37.922h45.148c3.0156 0 5.4688-2.4531 5.4688-5.4688 0-0.023437 0.011719-0.039063 0.011719-0.0625l0.003906-12.605c0-3.4609-2.8086-6.2695-6.2695-6.2695h-10.945c0-0.011719 0.003907-0.023437 0.003907-0.035156 0-4.6094-3.75-8.3594-8.3594-8.3594h-5.2266c-4.6094 0-8.3594 3.75-8.3594 8.3594 0 0.011719 0.003906 0.023437 0.003906 0.035156h-10.656c-3.4648 0-6.2695 2.8086-6.2695 6.2695v12.887c0.11719 2.9102 2.5039 5.25 5.4453 5.25zm27.992-9.9219l-4.0625 4.0625c-0.81641 0.81641-2.1406 0.81641-2.957 0l-4.0625-4.0625c-0.81641-0.81641-0.81641-2.1406 0-2.9531l4.0625-4.0664c0.81641-0.81641 2.1406-0.81641 2.957 0l4.0625 4.0664c0.81641 0.8125 0.81641 2.1367 0 2.9531zm-12.332-14.52c0-2.3047 1.875-4.1797 4.1797-4.1797h5.2266c2.3047 0 4.1797 1.875 4.1797 4.1797 0 0.011719 0.003906 0.023437 0.003906 0.035156h-13.594c0-0.011719 0.003907-0.023437 0.003907-0.035156zm-16.441 8.1836c0.085938-1.2734 0.96484-3.543 3.6758-3.543 0.57812 0 1.0469 0.46875 1.0469 1.0469s-0.46875 1.0469-1.0469 1.0469c-1.3477 0-1.5586 1.1758-1.5898 1.5352l0.003906 2.2422c0 0.57812-0.46875 1.0469-1.0469 1.0469s-1.0469-0.46875-1.0469-1.0469z"/>
 </g>
</svg>
