<?xml version="1.0" encoding="utf-8"?>
<!-- Generator: Adobe Illustrator 22.1.0, SVG Export Plug-In . SVG Version: 6.00 Build 0)  -->
<svg version="1.1" id="Layer_1" xmlns="http://www.w3.org/2000/svg" xmlns:xlink="http://www.w3.org/1999/xlink" x="0px" y="0px"
	 viewBox="0 0 273.5 74" style="enable-background:new 0 0 273.5 74;" xml:space="preserve">
<style type="text/css">
	.st0{fill:#2ECC71;}
</style>
<g transform="translate(0,-952.36218)">
	<path class="st0" d="M63.2,959.3c-0.6,0-1.3,0.3-1.7,1l-16.8,28.9l-5-8.6c-0.3-0.5-0.9-0.9-1.5-0.9c-0.7,0-1.4,0.3-1.7,0.9
		l-20.8,35.7c-1.1,1.9,0.1,3.1,1.8,3.1h78.4c1.3,0,2.3-1.7,1.6-2.8l-32.8-56.3C64.4,959.7,63.8,959.3,63.2,959.3z M62.4,971.3
		c0.7,0,1.4,0.3,1.7,0.9l15.4,26.2c0.5,0.9,0.3,2-0.7,2.6c-0.9,0.5-2,0.3-2.6-0.7l0,0l-15.4-26.3c-0.5-0.8-0.3-2,0.7-2.5
		C61.7,971.5,62,971.4,62.4,971.3z"/>
</g>
<g>
	<path class="st0" d="M110,32.5h3v4h0.1c0.5-0.8,1-1.5,1.7-2c0.7-0.6,1.4-1.1,2.2-1.4c0.8-0.4,1.7-0.7,2.5-0.8
		c0.9-0.2,1.8-0.3,2.6-0.3c1.7,0,3.3,0.3,4.8,0.9c1.5,0.6,2.7,1.4,3.8,2.5c1.1,1.1,1.9,2.3,2.5,3.8c0.6,1.5,0.9,3.1,0.9,4.8
		c0,1.7-0.3,3.3-0.9,4.8c-0.6,1.5-1.4,2.7-2.5,3.8c-1.1,1.1-2.3,1.9-3.8,2.5c-1.5,0.6-3.1,0.9-4.8,0.9c-0.9,0-1.7-0.1-2.6-0.3
		c-0.9-0.2-1.7-0.5-2.5-0.8c-0.8-0.4-1.6-0.9-2.2-1.4c-0.7-0.6-1.3-1.3-1.7-2h-0.1v15.2h-3V32.5z M112.6,43.9c0,1.3,0.2,2.5,0.7,3.6
		s1.2,2.1,2,3c0.9,0.8,1.9,1.5,3,2c1.2,0.5,2.4,0.7,3.7,0.7c1.4,0,2.6-0.2,3.7-0.7c1.1-0.5,2.1-1.2,2.9-2c0.8-0.8,1.4-1.8,1.8-3
		c0.4-1.1,0.6-2.3,0.6-3.6c0-1.3-0.2-2.5-0.6-3.6c-0.4-1.1-1-2.1-1.8-3c-0.8-0.8-1.7-1.5-2.9-2c-1.1-0.5-2.4-0.7-3.7-0.7
		c-1.3,0-2.6,0.2-3.7,0.7c-1.2,0.5-2.2,1.2-3,2c-0.9,0.8-1.5,1.8-2,3S112.6,42.6,112.6,43.9z"/>
	<path class="st0" d="M158.4,45.7c0,1.1,0,2.1,0,3c0,0.9,0,1.7,0.1,2.5c0,0.8,0.1,1.5,0.1,2.1c0,0.7,0.1,1.3,0.2,2h-2.8
		c-0.2-1.1-0.3-2.3-0.3-3.7h-0.1c-0.9,1.5-1.9,2.6-3.2,3.3c-1.3,0.7-2.9,1-4.8,1c-1,0-2-0.1-2.9-0.4c-1-0.2-1.8-0.6-2.6-1.2
		c-0.8-0.5-1.4-1.2-1.8-2.1c-0.5-0.9-0.7-1.9-0.7-3.1c0-1.7,0.4-3.1,1.3-4.1c0.9-1,2-1.8,3.3-2.3c1.3-0.5,2.7-0.8,4.1-1
		c1.5-0.1,2.8-0.2,3.9-0.2h3.5v-1.4c0-2-0.6-3.4-1.8-4.2c-1.2-0.9-2.7-1.3-4.6-1.3c-2.6,0-4.9,0.9-7,2.6l-1.7-2
		c1.1-1.1,2.4-1.8,4-2.4c1.6-0.5,3.2-0.8,4.6-0.8c2.8,0,5,0.6,6.6,1.9c1.6,1.3,2.5,3.4,2.5,6.3V45.7z M152.5,43.8
		c-1.2,0-2.5,0.1-3.6,0.2c-1.2,0.2-2.2,0.4-3.2,0.8c-0.9,0.4-1.7,0.9-2.2,1.6c-0.6,0.7-0.8,1.5-0.8,2.5c0,0.7,0.2,1.3,0.5,1.8
		c0.3,0.5,0.7,1,1.2,1.3c0.5,0.3,1,0.6,1.7,0.8c0.6,0.2,1.2,0.3,1.8,0.3c1.6,0,2.9-0.2,3.9-0.7c1-0.5,1.8-1.1,2.4-1.8
		c0.6-0.7,1-1.6,1.3-2.5c0.2-0.9,0.3-1.9,0.3-2.8v-1.5H152.5z"/>
	<path class="st0" d="M166.3,38.9c0-0.4,0-0.9,0-1.6c0-0.6-0.1-1.2-0.1-1.8c0-0.6,0-1.2-0.1-1.8c0-0.5,0-1,0-1.3h3
		c0,0.9,0.1,1.7,0.1,2.5c0,0.8,0.1,1.3,0.1,1.5c0.8-1.3,1.7-2.4,2.9-3.3c1.2-0.9,2.6-1.3,4.3-1.3c0.3,0,0.6,0,0.9,0.1
		c0.3,0,0.6,0.1,0.9,0.2l-0.3,2.9c-0.4-0.1-0.8-0.2-1.1-0.2c-1.3,0-2.4,0.2-3.3,0.6c-0.9,0.4-1.7,1-2.3,1.7
		c-0.6,0.7-1.1,1.6-1.4,2.5c-0.3,1-0.4,2-0.4,3.1v12.4h-3V38.9z"/>
	<path class="st0" d="M182.7,18h3v24.8l11.2-10.3h4.3l-11.7,10.4l13.1,12.3h-4.5l-12.5-12v12h-3V18z"/>
	<path class="st0" d="M206.5,49.4c0.6,1.2,1.5,2.1,2.8,2.8c1.2,0.6,2.5,1,3.8,1c0.6,0,1.2-0.1,1.9-0.3c0.6-0.2,1.2-0.5,1.7-0.8
		c0.5-0.4,0.9-0.8,1.2-1.3c0.3-0.5,0.5-1.1,0.5-1.8c0-1.1-0.3-1.8-1-2.4c-0.7-0.5-1.5-0.9-2.5-1.2c-1-0.3-2.1-0.5-3.3-0.8
		c-1.2-0.2-2.3-0.5-3.3-1c-1-0.4-1.8-1.1-2.5-1.8c-0.7-0.8-1-1.9-1-3.4c0-1.1,0.2-2.1,0.7-2.9c0.5-0.8,1.1-1.5,1.8-2
		c0.7-0.5,1.6-0.9,2.5-1.2c0.9-0.3,1.9-0.4,2.8-0.4c1.9,0,3.5,0.3,4.9,1c1.4,0.7,2.4,1.8,3.2,3.3l-2.7,1.6c-0.6-1.1-1.3-1.8-2.1-2.4
		c-0.8-0.5-1.9-0.8-3.3-0.8c-0.5,0-1.1,0.1-1.7,0.2c-0.6,0.2-1.1,0.4-1.6,0.7c-0.5,0.3-0.8,0.7-1.2,1.1c-0.3,0.5-0.5,1-0.5,1.6
		c0,1,0.3,1.8,1,2.3c0.7,0.5,1.5,0.9,2.5,1.2c1,0.3,2.1,0.5,3.3,0.7c1.2,0.2,2.3,0.5,3.3,1c1,0.4,1.8,1.1,2.5,1.9c0.7,0.8,1,2,1,3.6
		c0,1.2-0.2,2.2-0.7,3.1c-0.4,0.9-1.1,1.6-1.8,2.2c-0.8,0.6-1.7,1-2.6,1.3c-1,0.3-2,0.4-3.1,0.4c-2,0-3.8-0.4-5.4-1.1
		c-1.6-0.8-2.9-1.9-3.8-3.5L206.5,49.4z"/>
</g>
<g>
	<path class="st0" d="M233.2,14.2h7.6v9.6h9.7v7.5h-9.7v9.7h-7.6v-9.7h-9.7v-7.5h9.7V14.2z"/>
</g>
<text transform="matrix(1 0 0 1 86 119.4355)" style="font-family:'Gotham-Bold'; font-size:43.7275px;">+</text>
</svg>
