<?xml version="1.0" encoding="UTF-8"?>
<svg fill="#2ECC71" width="100pt" height="100pt" version="1.1" viewBox="0 0 100 100" xmlns="http://www.w3.org/2000/svg">
 <path d="m48.812 6c-2.8203 0-5.125 2.2773-5.125 5.0938v21.094h-35.688c-1.0859 0.10156-2.0039 1.1289-2 2.2188v7.4688c0 1.1562 1.0625 2.1875 2.2188 2.1875h2.625l3.9062 41.906c0.44141 4.6289 4.8906 8.0312 10.156 8.0312h50.188c5.2656 0 9.6836-3.4023 10.125-8.0312l3.9062-41.906h2.6562c1.1562 0 2.2188-1.0312 2.2188-2.1875v-7.4688c0-1.1562-1.0625-2.2188-2.2188-2.2188h-35.469v-21.094c0-2.7812-2.2969-5.0938-5.125-5.0938zm0 4.4062h2.375c0.38281 0 0.6875 0.33594 0.6875 0.6875v36.594c-0.60938-0.10547-1.2031-0.15625-1.8438-0.15625-0.64844 0-1.2812 0.050781-1.9062 0.15625v-36.594c0-0.3125 0.375-0.6875 0.6875-0.6875zm1.1875 43.031c2.8398 0 5.1875 2.3516 5.1875 5.1875s-2.3477 5.1875-5.1875 5.1875-5.1875-2.3516-5.1875-5.1875 2.3477-5.1875 5.1875-5.1875zm0 4.4062c-0.45312 0-0.75 0.32812-0.75 0.78125s0.29688 0.75 0.75 0.75 0.78125-0.29688 0.78125-0.75-0.32812-0.78125-0.78125-0.78125z" fill-rule="evenodd"/>
</svg>
