<?xml version="1.0" encoding="UTF-8"?>
<svg fill="#27AE60" width="100pt" height="100pt" version="1.1" viewBox="0 0 100 100" xmlns="http://www.w3.org/2000/svg">
 <path d="m50.602 9c-23 0-41.5 18.602-41.5 41.5s18.5 41.5 41.5 41.5 41.5-18.602 41.5-41.5-18.602-41.5-41.5-41.5zm25.199 22.801-24.199 39.801c-0.39844 0.69922-1.1992 0.80078-1.8008 0.39844l-6.6992-4.5-6.7031 4.5c-0.5 0.39844-1.3008 0-1.3008-0.69922l0.003906-9.3008 30.699-23-36.199 19.301-8-5.5c-0.89844-0.60156-0.69922-1.8984 0.30078-2.3008l53.5-19.301c0.29688-0.19922 0.69922 0.30078 0.39844 0.60156z"/>
</svg>
